HIERARCHY
ROOT Hips
{
  OFFSET 39.8768 98.8275 4.24869
  CHANNELS 6 Xposition Yposition Zposition Zrotation Xrotation Yrotation
  JOINT spine
  {
    OFFSET 0 8.30104 0.477352
    CHANNELS 3 Zrotation Xrotation Yrotation
    JOINT spine1
    {
      OFFSET 0 10.4565 0
      CHANNELS 3 Zrotation Xrotation Yrotation
      JOINT spine2
      {
        OFFSET 0 10.0192 0
        CHANNELS 3 Zrotation Xrotation Yrotation
        JOINT Neck
        {
          OFFSET 0 25.7235 1.22641
          CHANNELS 3 Zrotation Xrotation Yrotation
          JOINT Head
          {
            OFFSET 0 7.77175 0
            CHANNELS 3 Zrotation Xrotation Yrotation
            End Site
            {
              OFFSET 0 18.812 -6.20394
            }
          }
        }
        JOINT RightShoulder
        {
          OFFSET -4.2188 10.82 -0.587439
          CHANNELS 3 Zrotation Xrotation Yrotation
          JOINT RightArm
          {
            OFFSET 0 14.1914 0
            CHANNELS 3 Zrotation Xrotation Yrotation
            JOINT RightArmRoll
            {
              OFFSET 0 7.16408 0
              CHANNELS 3 Zrotation Xrotation Yrotation
              JOINT RightForeArm
              {
                OFFSET 0 20.8665 0
                CHANNELS 3 Zrotation Xrotation Yrotation
                JOINT RightForeArmRoll
                {
                  OFFSET 0 8.03921 0
                  CHANNELS 3 Zrotation Xrotation Yrotation
                  JOINT RightHand
                  {
                    OFFSET 0 16.133 0
                    CHANNELS 3 Zrotation Xrotation Yrotation
                    End Site
                    {
                      OFFSET 0 0 0
                    }
                  }
                }
              }
            }
          }
        }
        JOINT LeftShoulder
        {
          OFFSET 4.2188 10.82 -0.587439
          CHANNELS 3 Zrotation Xrotation Yrotation
          JOINT LeftArm
          {
            OFFSET 0 14.1914 0
            CHANNELS 3 Zrotation Xrotation Yrotation
            JOINT LeftArmRoll
            {
              OFFSET 0 7.16408 0
              CHANNELS 3 Zrotation Xrotation Yrotation
              JOINT LeftForeArm
              {
                OFFSET 0 20.8665 0
                CHANNELS 3 Zrotation Xrotation Yrotation
                JOINT LeftForeArmRoll
                {
                  OFFSET 0 8.03921 0
                  CHANNELS 3 Zrotation Xrotation Yrotation
                  JOINT LeftHand
                  {
                    OFFSET 0 16.133 0
                    CHANNELS 3 Zrotation Xrotation Yrotation
                    End Site
                    {
                      OFFSET 0 0 0
                    }
                  }
                }
              }
            }
          }
        }
      }
    }
  }
  JOINT RightUpLeg
  {
    OFFSET -7.35773 -1.34921 -1.13182
    CHANNELS 3 Zrotation Xrotation Yrotation
    JOINT RightUpLegRoll
    {
      OFFSET 0 18.9168 0
      CHANNELS 3 Zrotation Xrotation Yrotation
      JOINT RightLeg
      {
        OFFSET 0 -23.4256 0
        CHANNELS 3 Zrotation Xrotation Yrotation
        JOINT RightLegRoll
        {
          OFFSET 0 23.5023 0
          CHANNELS 3 Zrotation Xrotation Yrotation
          JOINT RightFoot
          {
            OFFSET 0 19.5617 0
            CHANNELS 3 Zrotation Xrotation Yrotation
            JOINT RightToeBase
            {
              OFFSET 0 16.3526 0
              CHANNELS 3 Zrotation Xrotation Yrotation
              End Site
              {
                OFFSET 0.00693125 7.91944 -0.912836
              }
            }
          }
        }
      }
    }
  }
  JOINT LeftUpLeg
  {
    OFFSET 7.35773 -1.34921 -1.13182
    CHANNELS 3 Zrotation Xrotation Yrotation
    JOINT LeftUpLegRoll
    {
      OFFSET 0 18.9169 0
      CHANNELS 3 Zrotation Xrotation Yrotation
      JOINT LeftLeg
      {
        OFFSET 0 23.4255 0
        CHANNELS 3 Zrotation Xrotation Yrotation
        JOINT LeftLegRoll
        {
          OFFSET 0 23.7195 0
          CHANNELS 3 Zrotation Xrotation Yrotation
          JOINT LeftFoot
          {
            OFFSET 0 19.3444 0
            CHANNELS 3 Zrotation Xrotation Yrotation
            JOINT LeftToeBase
            {
              OFFSET 0 16.3526 0
              CHANNELS 3 Zrotation Xrotation Yrotation
              End Site
              {
                OFFSET -0.0310629 7.91944 -0.912837
              }
            }
          }
        }
      }
    }
  }
}
MOTION
Frames: 9
Frame Time: 0.00208333
39.6814 98.8241 4.60451 1.03437 -1.50868 1.93173 -0.0928262 -2.70711 0.0798505 -0.171276 -1.4043 0.171711 -0.173284 0.240758 0.174557 -10.6175 37.3714 3.74059 9.76167 -18.4625 1.3025 27.7841 -11.1987 -7.4025 -19.2212 55.711 115.735 -1.29356e-006 1.38983e-006 2.77583e-006 -55.8657 78.7894 63.7544 2.85801e-006 3.03382e-006 -3.00627 8.03009 -4.95138 0.697641 -39.3593 -8.96019 5.20982 9.00126 49.8806 -104.216 -5.6188e-006 -3.21193e-006 4.43031e-006 11.8585 71.7028 -14.4968 1.04291e-006 8.54824e-007 3.00961 -8.02942 -4.95144 -0.697677 175.333 -0.533969 1.46559 180 7.0155e-015 178.936 175.894 4.97319 179.766 -1.98014e-006 1.23272e-006 0.0598179 -18.4398 67.7317 19.3212 8.13649 25.2327 -3.48774 -175.925 -0.280525 1.02092 4.54188e-006 -4.6773e-006 -1.12711 -3.54506 -8.30654 0.3919 1.50596e-006 2.18708e-006 -0.0951335 18.2412 67.3595 -19.0123 -8.13649 25.2327 3.48774 
39.6793 98.8282 4.60163 1.03381 -1.50927 1.93801 -0.0937995 -2.70649 0.0783168 -0.174654 -1.40419 0.168365 -0.176624 0.240867 0.171268 -10.5774 37.3633 3.73232 9.72909 -18.4495 1.30404 27.7824 -11.191 -7.3939 -19.2544 55.8079 115.756 -1.29356e-006 1.38983e-006 2.77583e-006 -56.2103 78.8798 64.1047 2.85801e-006 3.03382e-006 -3.00627 8.03009 -4.95138 0.697641 -39.3833 -8.9277 5.18127 9.04499 49.9175 -104.229 -5.6188e-006 -3.21193e-006 4.43031e-006 11.836 71.903 -14.5107 1.04291e-006 8.54824e-007 3.00961 -8.02942 -4.95144 -0.697677 175.334 -0.531272 1.46737 180 7.0155e-015 178.935 175.891 4.97603 179.766 -1.98014e-006 1.23272e-006 0.059816 -18.4387 67.7305 19.3201 8.13649 25.2327 -3.48774 -175.922 -0.278439 1.01996 4.54188e-006 -4.6773e-006 -1.12718 -3.5447 -8.30339 0.39231 1.50596e-006 2.18708e-006 -0.095166 18.2403 67.3585 -19.0113 -8.13649 25.2327 3.48774 
39.6794 98.8304 4.59759 1.03331 -1.50962 1.94403 -0.0947204 -2.70581 0.0767537 -0.178061 -1.40414 0.1649 -0.179992 0.240922 0.167862 -10.5393 37.358 3.72382 9.69884 -18.4396 1.30507 27.7831 -11.1825 -7.38446 -19.2703 55.9045 115.764 -1.29356e-006 1.38983e-006 2.77583e-006 -56.5281 78.9644 64.4265 2.85801e-006 3.03382e-006 -3.00627 8.03009 -4.95138 0.697641 -39.4093 -8.89554 5.15307 9.07801 49.9497 -104.23 -5.6188e-006 -3.21193e-006 4.43031e-006 11.8124 72.1114 -14.525 1.04291e-006 8.54824e-007 3.00961 -8.02942 -4.95144 -0.697677 175.335 -0.52826 1.46914 180 7.0155e-015 178.935 175.887 4.97889 179.766 -1.98014e-006 1.23272e-006 0.0598141 -18.4376 67.7293 19.3189 8.13649 25.2327 -3.48774 -175.919 -0.276717 1.01914 4.54188e-006 -4.6773e-006 -1.12725 -3.54431 -8.29916 0.392776 1.50596e-006 2.18708e-006 -0.0951984 18.2391 67.3572 -19.0101 -8.13649 25.2327 3.48774 
39.6754 98.8523 4.59483 1.03286 -1.50978 1.94974 -0.0955916 -2.70506 0.0751671 -0.181467 -1.40408 0.161343 -0.183358 0.240977 0.164363 -10.5033 37.3548 3.7152 9.671 -18.4324 1.30566 27.7859 -11.1734 -7.37427 -19.2697 56.0004 115.761 -1.29356e-006 1.38983e-006 2.77583e-006 -56.8179 79.043 64.7187 2.85801e-006 3.03382e-006 -3.00627 8.03009 -4.95138 0.697641 -39.4372 -8.86393 5.12542 9.09986 49.9775 -104.221 -5.6188e-006 -3.21193e-006 4.43031e-006 11.7881 72.3247 -14.5394 1.04291e-006 8.54824e-007 3.0096 -8.02942 -4.95144 -0.697677 175.336 -0.524957 1.47084 180 7.0155e-015 178.935 175.884 4.98175 179.766 -1.98014e-006 1.23272e-006 0.0598123 -18.4365 67.7281 19.3178 8.13649 25.2327 -3.48774 -175.917 -0.275269 1.01845 4.54188e-006 -4.6773e-006 -1.12731 -3.54391 -8.29411 0.39328 1.50596e-006 2.18708e-006 -0.0952308 18.2378 67.3557 -19.0087 -8.13649 25.2327 3.48774 
39.6699 98.847 4.59118 1.03244 -1.50977 1.95513 -0.0964155 -2.70423 0.0735626 -0.18484 -1.40398 0.157717 -0.18669 0.241086 0.160795 -10.4697 37.353 3.7066 9.64562 -18.4272 1.30586 27.7908 -11.1638 -7.36345 -19.2533 56.0949 115.746 -1.29356e-006 1.38983e-006 2.77583e-006 -57.0785 79.1155 64.9802 2.85801e-006 3.03382e-006 -3.00627 8.03009 -4.95138 0.697641 -39.4664 -8.83308 5.09848 9.1101 50.0014 -104.201 -5.6188e-006 -3.21193e-006 4.43031e-006 11.7632 72.5395 -14.5533 1.04291e-006 8.54824e-007 3.0096 -8.02942 -4.95144 -0.697677 175.336 -0.521388 1.47246 180 7.0155e-015 178.935 175.881 4.98465 179.766 -1.98014e-006 1.23272e-006 0.0598105 -18.4355 67.727 19.3167 8.13649 25.2327 -3.48774 -175.914 -0.274008 1.01784 4.54188e-006 -4.6773e-006 -1.12737 -3.54351 -8.28847 0.393808 1.50596e-006 2.18708e-006 -0.0952632 18.2364 67.3541 -19.0072 -8.13649 25.2327 3.48774 
39.6686 98.8295 4.58715 1.03203 -1.50964 1.96017 -0.0971947 -2.70331 0.0719459 -0.188148 -1.40376 0.154048 -0.189958 0.241303 0.157183 -10.4387 37.3518 3.69815 9.62278 -18.4234 1.30572 27.7975 -11.1537 -7.3521 -19.2217 56.1878 115.721 -1.29356e-006 1.38983e-006 2.77583e-006 -57.3089 79.1815 65.21 2.85801e-006 3.03382e-006 -3.00627 8.03009 -4.95138 0.697641 -39.4968 -8.8032 5.07245 9.10832 50.0217 -104.168 -5.6188e-006 -3.21193e-006 4.43031e-006 11.738 72.7526 -14.5662 1.04291e-006 8.54824e-007 3.0096 -8.02942 -4.95144 -0.697677 175.337 -0.517576 1.47393 180 7.0155e-015 178.935 175.878 4.98758 179.766 -1.98014e-006 1.23272e-006 0.0598087 -18.4344 67.7258 19.3156 8.13649 25.2327 -3.48774 -175.911 -0.272846 1.01728 4.54188e-006 -4.6773e-006 -1.12744 -3.54313 -8.2825 0.394342 1.50596e-006 2.18708e-006 -0.0952955 18.235 67.3525 -19.0056 -8.13649 25.2327 3.48774 
39.6708 98.8378 4.56829 1.03162 -1.50941 1.96482 -0.0979319 -2.70232 0.0703229 -0.191361 -1.40338 0.15036 -0.19313 0.241681 0.153551 -10.4106 37.3506 3.68997 9.60254 -18.4206 1.30531 27.8058 -11.1432 -7.34032 -19.1757 56.2784 115.685 -1.29356e-006 1.38983e-006 2.77583e-006 -57.5079 79.241 65.407 2.85801e-006 3.03382e-006 -3.00627 8.03009 -4.95138 0.697641 -39.528 -8.77451 5.04751 9.09406 50.0389 -104.123 -5.6188e-006 -3.21193e-006 4.43031e-006 11.7125 72.9606 -14.5775 1.04291e-006 8.54824e-007 3.0096 -8.02942 -4.95144 -0.697677 175.338 -0.513545 1.47524 180 7.0155e-015 178.935 175.875 4.99051 179.766 -1.98014e-006 1.23272e-006 0.059807 -18.4333 67.7246 19.3145 8.13649 25.2327 -3.48774 -175.909 -0.271694 1.01674 4.54188e-006 -4.6773e-006 -1.1275 -3.54279 -8.27644 0.394867 1.50596e-006 2.18708e-006 -0.0953278 18.2337 67.3509 -19.0041 -8.13649 25.2327 3.48774 
39.6687 98.8237 4.56699 1.03119 -1.50913 1.96907 -0.0986296 -2.70123 0.0686993 -0.194447 -1.40279 0.14668 -0.196175 0.242274 0.149923 -10.3855 37.3488 3.68219 9.58495 -18.4181 1.30466 27.8156 -11.1325 -7.32822 -19.1159 56.3663 115.639 -1.29356e-006 1.38983e-006 2.77583e-006 -57.6745 79.2937 65.5704 2.85801e-006 3.03382e-006 -3.00627 8.03009 -4.95138 0.697641 -39.5596 -8.74721 5.02385 9.06694 50.0534 -104.065 -5.6188e-006 -3.21193e-006 4.43031e-006 11.6869 73.1601 -14.5866 1.04291e-006 8.54824e-007 3.0096 -8.02942 -4.95144 -0.697677 175.339 -0.50932 1.47633 180 7.0155e-015 178.935 175.872 4.99349 179.766 -1.98014e-006 1.23272e-006 0.0598052 -18.4323 67.7234 19.3134 8.13649 25.2327 -3.48774 -175.906 -0.270464 1.01617 4.54188e-006 -4.6773e-006 -1.12756 -3.5425 -8.27053 0.395367 1.50596e-006 2.18708e-006 -0.09536 18.2324 67.3495 -19.0028 -8.13649 25.2327 3.48774 
39.6624 98.8267 4.57166 1.03073 -1.50882 1.97289 -0.0992903 -2.70004 0.0670809 -0.197374 -1.40193 0.143031 -0.199062 0.243136 0.146325 -10.3637 37.3455 3.67495 9.57009 -18.4154 1.30384 27.8266 -11.1215 -7.3159 -19.0432 56.451 115.583 -1.29356e-006 1.38983e-006 2.77583e-006 -57.8079 79.3393 65.6993 2.85801e-006 3.03382e-006 -3.00627 8.03009 -4.95138 0.697641 -39.5914 -8.72153 5.00164 9.02652 50.0656 -103.994 -5.6188e-006 -3.21193e-006 4.43031e-006 11.6613 73.3478 -14.5927 1.04291e-006 8.54824e-007 3.0096 -8.02942 -4.95144 -0.697677 175.34 -0.504924 1.47718 180 7.0155e-015 178.935 175.87 4.99646 179.766 -1.98014e-006 1.23272e-006 0.0598035 -18.4312 67.7222 19.3122 8.13649 25.2327 -3.48774 -175.903 -0.269068 1.01555 4.54188e-006 -4.6773e-006 -1.12762 -3.54228 -8.26503 0.395825 1.50596e-006 2.18708e-006 -0.0953923 18.2314 67.3483 -19.0016 -8.13649 25.2327 3.48774 
